<svg width="223" height="104" viewBox="0 0 223 104" fill="none" xmlns="http://www.w3.org/2000/svg">
<path d="M0.937712 1.36364H13.9988L25.0783 28.3807H25.5897L36.6692 1.36364H49.7303V45H39.4604V18.196H39.0982L28.6153 44.723H22.0528L11.5698 18.0469H11.2076V45H0.937712V1.36364ZM97.1949 23.1818C97.1949 27.983 96.2716 32.0526 94.425 35.3906C92.5784 38.7287 90.0784 41.2642 86.925 42.9972C83.7858 44.7301 80.2631 45.5966 76.3568 45.5966C72.4364 45.5966 68.9065 44.723 65.7673 42.9759C62.6281 41.2287 60.1352 38.6932 58.2886 35.3693C56.4563 32.0312 55.5401 27.9687 55.5401 23.1818C55.5401 18.3807 56.4563 14.3111 58.2886 10.973C60.1352 7.63494 62.6281 5.09943 65.7673 3.36648C68.9065 1.63352 72.4364 0.767044 76.3568 0.767044C80.2631 0.767044 83.7858 1.63352 86.925 3.36648C90.0784 5.09943 92.5784 7.63494 94.425 10.973C96.2716 14.3111 97.1949 18.3807 97.1949 23.1818ZM86.4136 23.1818C86.4136 20.3409 86.0088 17.9403 85.1992 15.9801C84.4037 14.0199 83.2531 12.5355 81.7474 11.527C80.256 10.5185 78.4591 10.0142 76.3568 10.0142C74.2688 10.0142 72.4719 10.5185 70.9662 11.527C69.4605 12.5355 68.3028 14.0199 67.4932 15.9801C66.6977 17.9403 66.3 20.3409 66.3 23.1818C66.3 26.0227 66.6977 28.4233 67.4932 30.3835C68.3028 32.3437 69.4605 33.8281 70.9662 34.8366C72.4719 35.8452 74.2688 36.3494 76.3568 36.3494C78.4591 36.3494 80.256 35.8452 81.7474 34.8366C83.2531 33.8281 84.4037 32.3437 85.1992 30.3835C86.0088 28.4233 86.4136 26.0227 86.4136 23.1818ZM140.19 1.36364V45H131.241L113.876 19.8153H113.599V45H103.053V1.36364H112.129L129.303 26.5057H129.665V1.36364H140.19ZM145.095 9.92898V1.36364H181.977V9.92898H168.745V45H158.347V9.92898H145.095ZM190.817 45H179.482L194.205 1.36364H208.246L222.969 45H211.634L201.385 12.358H201.045L190.817 45ZM189.304 27.8267H212.998V35.8381H189.304V27.8267ZM48.4795 104V60.3636H66.6755C69.9426 60.3636 72.677 60.8253 74.8787 61.7486C77.0946 62.6719 78.7565 63.9645 79.8645 65.6264C80.9866 67.2884 81.5477 69.2131 81.5477 71.4006C81.5477 73.0625 81.1997 74.5469 80.5037 75.8537C79.8076 77.1463 78.8488 78.2187 77.6272 79.071C76.4056 79.9233 74.9923 80.5199 73.3872 80.8608V81.2869C75.1485 81.3722 76.775 81.848 78.2664 82.7145C79.7721 83.581 80.9795 84.7884 81.8886 86.3366C82.7977 87.8707 83.2522 89.6889 83.2522 91.7912C83.2522 94.1349 82.6556 96.2301 81.4625 98.0767C80.2693 99.9091 78.5434 101.358 76.2849 102.423C74.0264 103.474 71.2849 104 68.0605 104H48.4795ZM59.0264 95.4986H65.5463C67.8332 95.4986 69.5164 95.0653 70.596 94.1989C71.6897 93.3324 72.2366 92.125 72.2366 90.5767C72.2366 89.4545 71.9738 88.4886 71.4483 87.679C70.9227 86.8551 70.177 86.223 69.211 85.7827C68.2451 85.3281 67.0875 85.1009 65.738 85.1009H59.0264V95.4986ZM59.0264 78.304H64.8645C66.015 78.304 67.0378 78.1122 67.9326 77.7287C68.8275 77.3452 69.5235 76.7912 70.0207 76.0668C70.5321 75.3423 70.7878 74.4687 70.7878 73.446C70.7878 71.983 70.2693 70.8324 69.2324 69.9943C68.1954 69.1562 66.7963 68.7372 65.0349 68.7372H59.0264V78.304ZM88.0233 104V60.3636H118.449V68.929H98.5701V77.8778H116.894V86.4645H98.5701V95.4347H118.449V104H88.0233ZM124.755 60.3636H137.816L148.895 87.3807H149.407L160.486 60.3636H173.547V104H163.277V77.196H162.915L152.432 103.723H145.87L135.387 77.0469H135.024V104H124.755V60.3636Z" fill="white"/>
</svg>
